<svg xmlns="http://www.w3.org/2000/svg" viewBox="0 0 32 32" width="16" height="16" style="fill: rgba(90, 90, 90, 1);"><path d="M24.9 12.191c0-4.77-3.971-8.654-8.889-8.654s-8.889 3.883-8.889 8.654c0 4.687 2.92 10.128 8.891 16.264 5.968-6.113 8.887-11.553 8.887-16.264zM17.285 29.697c-0.011 0.011-0.021 0.022-0.032 0.032-0.704 0.685-1.829 0.669-2.514-0.034-6.263-6.436-9.395-12.27-9.395-17.503 0-5.761 4.776-10.431 10.667-10.431s10.667 4.67 10.667 10.431c0 5.256-3.131 11.091-9.392 17.505zM16.011 17.76c-2.455 0-4.444-1.99-4.444-4.444s1.99-4.444 4.444-4.444 4.444 1.99 4.444 4.444-1.99 4.444-4.444 4.444zM16.011 15.982c1.473 0 2.667-1.194 2.667-2.667s-1.194-2.667-2.667-2.667-2.667 1.194-2.667 2.667 1.194 2.667 2.667 2.667z"></path></svg>